# xmcd
#
# Track frame offsets: 
#        150
#        32772
#        51340
#        83265
#        103375
#        142841
#        153026
#        184338
#        198941
#        236776
#
# Disc length: 3271 seconds
#
# Revision: 1
# Processed by: cddbd v1.5.2PL0 Copyright (c) Steve Scherf et al.
# Submitted via: ExactAudioCopy v0.99pb3
#
DISCID=7c0cc50a
DTITLE=Jean-Marc Foltz and Bruno Chevillon - Cette Opacite
DYEAR=2005
DGENRE=Jazz
TTITLE0=Le coin du désir soudain
TTITLE1=Il est là, on l'a vu
TTITLE2=Didascalie
TTITLE3=Le bruit court...
TTITLE4=This imbalance and its consequences
TTITLE5=Le murmure des anges
TTITLE6=Le voile est déchiré
TTITLE7=Via  San Teodoro 8
TTITLE8=Entre faire et entendre
TTITLE9=Cette opacité
EXTD=YEAR: 2005
EXTT0=
EXTT1=
EXTT2=
EXTT3=
EXTT4=
EXTT5=
EXTT6=
EXTT7=
EXTT8=
EXTT9=
PLAYORDER=
